<svg width="290" height="290" viewBox="0 0 290 290" fill="none" xmlns="http://www.w3.org/2000/svg">
<rect width="290" height="290" rx="48" fill="#FAFAFA"/>
<path d="M66.2921 194.266C62.9163 194.266 60.3845 192.859 58.6966 190.046C57.0087 187.233 56.9149 182.873 58.4152 176.965L69.246 136.174C70.2775 132.517 70.4181 129.985 69.668 128.578C69.0115 127.172 68.0269 126.468 66.7141 126.468C64.6511 126.468 62.3068 127.781 59.6812 130.407C57.1493 132.939 54.4768 136.455 51.6636 140.956C48.9442 145.364 46.2717 150.38 43.6461 156.007C41.1142 161.539 38.7699 167.4 36.6131 173.589C34.4564 179.684 32.7216 185.639 31.4088 191.453C31.1274 192.484 30.471 193 29.4395 193H23.5319C22.219 193 21.7033 192.39 21.9846 191.171L42.5208 102.978C42.9897 101.29 42.9897 100.118 42.5208 99.4619C42.1457 98.8055 41.3018 98.4304 39.9889 98.3366L35.7692 97.9146C34.3626 97.8209 33.7531 97.2113 33.9406 96.0861C34.1282 95.2421 34.7846 94.7264 35.9098 94.5388C39.2856 93.9762 42.2864 93.3198 44.912 92.5696C47.5376 91.7256 49.6475 90.6473 51.2416 89.3344C51.9918 88.7718 52.6951 88.4905 53.3515 88.4905C54.4768 88.4905 54.8988 89.1938 54.6175 90.6004L40.8329 150.38C40.7391 151.037 40.8798 151.412 41.2549 151.506C41.63 151.599 41.9582 151.365 42.2395 150.802C45.9904 143.113 49.5537 137.065 52.9296 132.657C56.3054 128.25 59.4467 125.109 62.3537 123.233C65.3544 121.358 68.0738 120.42 70.5119 120.42C73.9815 120.42 76.5134 121.827 78.1075 124.64C79.7016 127.453 79.7016 131.767 78.1075 137.58L67.4174 178.371C66.761 180.997 66.7141 182.966 67.2768 184.279C67.8394 185.592 68.8709 186.248 70.3713 186.248C72.2467 186.248 74.0753 185.029 75.8569 182.591C77.6386 180.059 79.561 175.324 81.624 168.385C81.9053 167.353 82.5148 166.837 83.4525 166.837C84.2027 166.837 84.6247 167.119 84.7185 167.681C84.906 168.244 84.906 168.9 84.7185 169.651C82.9368 176.027 81.0144 181.044 78.9514 184.701C76.8884 188.264 74.7786 190.749 72.6218 192.156C70.5588 193.563 68.4489 194.266 66.2921 194.266ZM104.071 194.266C100.602 194.266 98.2103 192.719 96.8975 189.624C95.6785 186.436 95.7723 182.263 97.1788 177.106L108.291 136.314C109.041 133.595 109.229 131.485 108.854 129.985C108.478 128.484 107.634 127.734 106.322 127.734C104.165 127.734 101.961 129.375 99.7107 132.657C97.5539 135.939 95.6785 140.487 94.0844 146.301C93.803 147.333 93.1935 147.849 92.2558 147.849C90.943 147.849 90.521 146.911 90.9899 145.035C93.1466 137.158 95.9598 131.11 99.4294 126.89C102.993 122.577 106.884 120.42 111.104 120.42C114.48 120.42 116.73 121.967 117.856 125.062C118.981 128.156 118.793 132.376 117.293 137.721L106.04 178.512C104.259 184.982 104.868 188.218 107.869 188.218C109.744 188.218 111.901 186.952 114.339 184.42C116.777 181.888 119.309 178.418 121.935 174.011C124.654 169.604 127.327 164.587 129.952 158.961C132.578 153.334 134.969 147.427 137.126 141.238C139.283 135.049 141.064 128.906 142.471 122.811C142.752 121.78 143.409 121.264 144.44 121.264H150.067C151.379 121.264 151.895 121.874 151.614 123.093L138.392 179.637C137.36 184.045 138.157 186.248 140.783 186.248C144.722 186.248 148.848 180.294 153.161 168.385C153.536 167.166 154.193 166.556 155.13 166.556C155.693 166.556 156.068 166.791 156.256 167.259C156.537 167.728 156.537 168.338 156.256 169.088C153.724 177.059 150.723 183.248 147.253 187.655C143.784 192.062 140.127 194.266 136.282 194.266C129.53 194.266 127.28 189.343 129.53 179.497L133.188 163.884C133.375 163.227 133.234 162.852 132.766 162.758C132.39 162.665 132.062 162.899 131.781 163.462C126.342 174.714 121.325 182.685 116.73 187.374C112.136 191.969 107.916 194.266 104.071 194.266ZM175.64 194.266C172.546 194.266 169.264 193.797 165.794 192.859C162.418 191.922 159.839 190.749 158.058 189.343C157.401 188.78 157.12 187.936 157.214 186.811L160.308 168.385C160.496 167.166 161.058 166.556 161.996 166.556C163.028 166.556 163.543 167.213 163.543 168.525L163.825 175.277C164.012 180.622 165.278 184.56 167.623 187.092C170.061 189.53 173.014 190.749 176.484 190.749C179.485 190.749 182.064 189.812 184.22 187.936C186.377 185.967 187.455 183.107 187.455 179.356C187.455 177.199 187.127 175.23 186.471 173.448C185.814 171.573 184.783 169.604 183.376 167.541C181.97 165.384 180.047 162.805 177.609 159.805C174.421 155.679 172.03 152.162 170.436 149.255C168.935 146.254 168.185 143.16 168.185 139.972C168.185 134.064 170.014 129.328 173.671 125.765C177.422 122.202 182.157 120.42 187.877 120.42C190.409 120.42 192.847 120.795 195.192 121.545C197.63 122.295 199.646 123.421 201.24 124.921C202.084 125.578 202.365 126.421 202.084 127.453L198.146 146.301C197.864 147.52 197.302 148.13 196.458 148.13C195.614 148.13 195.098 147.473 194.91 146.161L194.488 139.409C194.113 133.783 193.363 129.75 192.238 127.312C191.206 124.874 189.003 123.655 185.627 123.655C182.626 123.655 180.188 124.687 178.313 126.75C176.437 128.813 175.499 131.298 175.499 134.205C175.499 137.299 176.343 140.159 178.031 142.785C179.719 145.317 182.017 148.552 184.924 152.49C188.768 157.554 191.347 161.586 192.66 164.587C194.066 167.588 194.77 170.635 194.77 173.73C194.77 177.668 193.879 181.185 192.097 184.279C190.409 187.374 188.112 189.812 185.205 191.593C182.298 193.375 179.11 194.266 175.64 194.266ZM247.061 194.266C243.685 194.266 241.153 192.859 239.465 190.046C237.777 187.233 237.683 182.873 239.184 176.965L250.015 136.174C251.046 132.517 251.187 129.985 250.437 128.578C249.78 127.172 248.796 126.468 247.483 126.468C245.42 126.468 243.075 127.781 240.45 130.407C237.918 132.939 235.245 136.455 232.432 140.956C229.713 145.364 227.04 150.38 224.415 156.007C221.883 161.539 219.538 167.4 217.382 173.589C215.225 179.684 213.49 185.639 212.177 191.453C211.896 192.484 211.24 193 210.208 193H204.3C202.988 193 202.472 192.39 202.753 191.171L223.289 102.978C223.758 101.29 223.758 100.118 223.289 99.4619C222.914 98.8055 222.07 98.4304 220.758 98.3366L216.538 97.9146C215.131 97.8209 214.522 97.2113 214.709 96.0861C214.897 95.2421 215.553 94.7264 216.678 94.5388C220.054 93.9762 223.055 93.3198 225.681 92.5696C228.306 91.7256 230.416 90.6473 232.01 89.3344C232.76 88.7718 233.464 88.4905 234.12 88.4905C235.245 88.4905 235.667 89.1938 235.386 90.6004L221.601 150.38C221.508 151.037 221.648 151.412 222.023 151.506C222.399 151.599 222.727 151.365 223.008 150.802C226.759 143.113 230.322 137.065 233.698 132.657C237.074 128.25 240.215 125.109 243.122 123.233C246.123 121.358 248.842 120.42 251.28 120.42C254.75 120.42 257.282 121.827 258.876 124.64C260.47 127.453 260.47 131.767 258.876 137.58L248.186 178.371C247.53 180.997 247.483 182.966 248.045 184.279C248.608 185.592 249.639 186.248 251.14 186.248C253.015 186.248 254.844 185.029 256.626 182.591C258.407 180.059 260.33 175.324 262.393 168.385C262.674 167.353 263.283 166.837 264.221 166.837C264.971 166.837 265.393 167.119 265.487 167.681C265.675 168.244 265.675 168.9 265.487 169.651C263.705 176.027 261.783 181.044 259.72 184.701C257.657 188.264 255.547 190.749 253.39 192.156C251.327 193.563 249.218 194.266 247.061 194.266Z" fill="black"/>
</svg>
